<svg t="1722791135147" class="icon" viewBox="0 0 1024 1024" version="1.1" xmlns="http://www.w3.org/2000/svg" p-id="7978" width="42" height="42"><path d="M779.729455 104.727273h-558.545455A128 128 0 0 0 93.184 232.727273v558.545454a128 128 0 0 0 128 128h558.545455a128 128 0 0 0 128-128V232.727273a128 128 0 0 0-128-128z m-558.545455 69.818182h558.545455c32.116364 0 58.181818 26.065455 58.181818 58.181818v558.545454c0 32.116364-26.065455 58.181818-58.181818 58.181818h-558.545455c-32.116364 0-58.181818-26.065455-58.181818-58.181818V232.727273c0-32.116364 26.065455-58.181818 58.181818-58.181818z" fill="#10298D" p-id="7979"></path><path d="M325.818182 372.363636m46.545454 0l0 0q46.545455 0 46.545455 46.545455l0 46.545454q0 46.545455-46.545455 46.545455l0 0q-46.545455 0-46.545454-46.545455l0-46.545454q0-46.545455 46.545454-46.545455Z" fill="#10298D" p-id="7980"></path><path d="M605.090909 372.363636m46.545455 0l0 0q46.545455 0 46.545454 46.545455l0 46.545454q0 46.545455-46.545454 46.545455l0 0q-46.545455 0-46.545455-46.545455l0-46.545454q0-46.545455 46.545455-46.545455Z" fill="#10298D" p-id="7981"></path><path d="M638.231273 611.700364a34.909091 34.909091 0 1 1 40.029091 57.250909c-48.733091 34.071273-104.354909 51.2-165.794909 51.2-61.486545 0-117.108364-17.128727-165.841455-51.2a34.909091 34.909091 0 0 1 40.029091-57.250909c36.864 25.832727 78.475636 38.632727 125.812364 38.632727 47.290182 0 88.901818-12.8 125.765818-38.632727z" fill="#10298D" p-id="7982"></path></svg>