<?xml version="1.0" standalone="no"?><!DOCTYPE svg PUBLIC "-//W3C//DTD SVG 1.1//EN" "http://www.w3.org/Graphics/SVG/1.1/DTD/svg11.dtd"><svg t="1722160990192" class="icon" viewBox="0 0 1024 1024" version="1.1" xmlns="http://www.w3.org/2000/svg" p-id="26699" xmlns:xlink="http://www.w3.org/1999/xlink" width="200" height="200"><path d="M889.344 460.8c-6.485333-5.632-15.36-7.168-23.381333-4.266667-8.021333 2.901333-13.824 9.898667-15.189334 18.261334-1.365333 8.362667 1.877333 16.896 8.533334 22.186666 53.930667 44.544 87.893333 108.032 94.208 177.493334h-144.042667c-1.365333-51.370667-7.338667-100.352-17.237333-142.848-1.877333-8.192-8.021333-14.677333-16.042667-17.237334-8.021333-2.389333-16.725333-0.341333-22.869333 5.290667-6.144 5.802667-8.704 14.336-6.826667 22.528 9.045333 38.912 14.677333 84.309333 16.042667 132.096h-146.602667c0.682667-23.210667 2.218667-45.738667 4.778667-67.413333 1.024-8.362667-2.389333-16.725333-9.216-21.845334s-15.701333-6.144-23.552-2.730666c-7.68 3.413333-13.141333 10.581333-13.994667 19.114666-2.730667 23.552-4.437333 47.957333-5.290667 73.045334H376.832V698.026667c0 170.666667 139.946667 308.906667 312.490667 308.906666S1001.813333 868.693333 1001.813333 698.026667c-0.170667-92.672-41.813333-178.858667-112.469333-237.226667zM424.789333 721.578667h144.042667c2.389333 94.208 19.456 176.64 47.616 228.522666-103.936-29.184-181.76-119.296-191.658667-228.522666z m264.533334 238.421333c-31.914667 0-69.290667-104.618667-73.386667-238.421333h146.602667c-3.925333 133.802667-41.301333 238.421333-73.216 238.421333z m72.704-9.898667c27.989333-51.712 45.056-134.314667 47.616-228.522666h144.042666c-9.898667 109.226667-87.722667 199.338667-191.658666 228.522666z" fill="#1483CC" p-id="26700"></path><path d="M689.322667 1018.197333c-178.346667 0-323.584-143.530667-323.584-320v-34.645333h192.512c0.853333-21.674667 2.56-42.837333 4.949333-63.146667 1.365333-12.288 9.216-23.04 20.650667-27.989333 11.434667-4.949333 24.746667-3.413333 34.645333 4.096 9.898667 7.509333 15.018667 19.797333 13.482667 32.085333-2.048 17.749333-3.584 36.181333-4.437334 54.954667h123.733334c-1.877333-42.496-6.997333-83.285333-15.36-118.442667-2.730667-11.946667 1.024-24.746667 10.069333-33.109333 9.045333-8.362667 21.845333-11.434667 33.621333-7.850667 11.776 3.584 20.821333 13.312 23.722667 25.258667 9.386667 40.106667 15.189333 86.357333 17.237333 134.144h120.832c-8.533333-61.781333-39.765333-117.418667-88.746666-157.866667-9.728-7.850667-14.506667-20.309333-12.629334-32.597333 2.048-12.288 10.581333-22.698667 22.357334-26.965333 11.776-4.266667 24.917333-1.877333 34.304 6.144 73.898667 61.098667 116.224 150.528 116.224 245.76-0.170667 176.469333-145.237333 320.170667-323.584 320.170666zM387.925333 685.738667v12.458666c0 164.181333 135.168 297.813333 301.397334 297.813334 166.229333 0 301.397333-133.632 301.397333-297.813334 0-88.576-39.424-171.861333-108.202667-228.693333l-0.170666-0.170667c-3.413333-2.901333-8.192-3.754667-12.288-2.218666-4.266667 1.536-7.338667 5.290667-8.021334 9.728-0.682667 4.437333 1.024 8.874667 4.608 11.776l0.170667 0.170666c56.832 46.762667 91.648 112.64 98.133333 185.002667l1.024 12.117333h-167.253333l-0.341333-10.752c-1.365333-50.176-7.168-98.816-16.896-140.629333-1.024-4.266667-4.266667-7.850667-8.533334-9.045333-4.266667-1.365333-8.874667-0.170667-12.117333 2.901333-3.242667 3.072-4.608 7.509333-3.584 11.946667 9.216 39.765333 14.848 86.186667 16.213333 134.314666l0.341334 11.434667h-169.472l0.341333-11.434667c0.682667-23.210667 2.389333-46.250667 4.949333-68.437333 0.512-4.608-1.194667-9.045333-4.778666-11.605333-3.584-2.730667-8.362667-3.242667-12.458667-1.536-4.096 1.706667-6.997333 5.632-7.338667 10.069333-2.730667 23.210667-4.437333 47.445333-5.12 72.192l-0.341333 10.752H387.925333zM689.322667 971.093333c-47.616 0-80.896-129.365333-84.48-249.173333l-0.341334-11.434667h169.472l-0.341333 11.434667c-3.584 119.808-36.864 249.173333-84.309333 249.173333z m-61.952-238.421333c2.56 57.514667 11.434667 112.128 25.258666 154.965333 14.506667 45.056 29.866667 61.269333 36.522667 61.269334 6.826667 0 22.016-16.384 36.522667-61.269334 13.824-42.666667 22.698667-97.28 25.258666-154.965333h-123.562666z m11.264 235.178667l-25.258667-7.168c-53.418667-15.018667-100.693333-45.397333-136.533333-87.722667-36.352-42.837333-58.197333-94.890667-63.146667-150.357333l-1.024-12.117334h166.912l0.341333 10.752c2.389333 92.16 19.285333 173.568 46.250667 223.402667l12.458667 23.210667z m-201.386667-235.178667c12.458667 89.088 73.728 165.376 157.866667 198.485333-21.162667-50.517333-34.133333-119.637333-37.034667-198.485333h-120.832z m302.592 235.178667l12.458667-23.04c26.965333-49.834667 43.861333-131.242667 46.250666-223.402667l0.341334-10.752h166.912l-1.024 12.117333c-4.949333 55.466667-26.794667 107.52-63.146667 150.357334-35.84 42.325333-83.114667 72.704-136.533333 87.722666l-25.258667 6.997334z m80.554667-235.178667c-2.901333 79.018667-15.872 147.968-37.034667 198.485333 84.138667-33.109333 145.408-109.397333 157.866667-198.485333h-120.832z" fill="#1483CC" p-id="26701"></path><path d="M990.208 133.12c-30.378667-52.565333-97.450667-71.168-150.528-41.642667l-220.330667 127.146667-283.306666-161.621333c-17.408-10.069333-43.178667-10.069333-60.757334 0l-77.994666 45.056c-23.552 13.653333-26.965333 43.178667-7.509334 61.952l196.266667 189.269333-141.312 81.578667L131.413333 404.821333c-5.632-1.536-11.776-0.682667-16.896 2.218667l-77.994666 45.056c-24.064 13.994667-26.453333 44.202667-4.949334 61.781333l196.437334 170.666667c7.168 6.144 17.578667 7.168 25.770666 2.389333l697.173334-402.432c52.224-31.402667 69.632-98.645333 39.253333-151.381333z m-61.269333 112.64L245.589333 640.341333 67.584 485.888l61.44-35.498667 113.322667 30.037334c5.632 1.536 11.776 0.682667 16.896-2.218667L434.005333 377.173333c6.144-3.584 10.069333-9.728 10.922667-16.554666 0.853333-6.997333-1.536-13.824-6.656-18.773334l-212.309333-204.8 71.68-41.301333c3.584-2.048 12.458667-2.048 16.213333 0l294.4 168.106667c6.826667 3.925333 15.36 3.925333 22.186667 0L861.866667 130.048c31.914667-17.578667 71.850667-6.314667 90.112 25.088 18.261333 31.573333 8.021333 71.850667-23.04 90.624z" fill="#3DAAF2" p-id="26702"></path><path d="M242.858667 704.341333c-8.704 0-17.237333-3.072-24.064-9.045333l-196.266667-170.496C8.533333 513.536 1.365333 497.322667 2.730667 480.426667c1.365333-16.896 11.093333-31.744 26.794666-40.789334L107.52 394.581333c8.533333-4.949333 18.432-6.144 27.818667-3.754666l107.52 28.501333 119.466666-68.949333-182.613333-175.957334c-12.629333-12.117333-18.773333-28.672-16.725333-45.226666 2.048-16.554667 11.776-31.061333 26.965333-39.765334L267.946667 44.373333c21.845333-12.629333 53.418667-12.629333 75.264 0l275.968 157.525334 213.333333-123.221334c29.013333-16.213333 62.634667-20.138667 94.72-11.264 32.085333 8.874667 58.88 29.525333 75.434667 58.368 16.554667 28.842667 21.162667 62.293333 12.970666 94.549334-8.362667 32.256-28.501333 59.392-57.002666 76.458666l-0.170667 0.170667-697.173333 402.432c-5.802667 3.413333-12.117333 4.949333-18.432 4.949333z m-145.066667-270.677333l-53.76 31.061333c-7.338667 4.266667-11.776 10.752-12.458667 18.090667-0.512 7.338667 2.901333 14.506667 9.386667 19.797333l0.341333 0.341334 196.437334 170.666666c2.56 2.218667 6.144 2.56 9.045333 0.853334L943.786667 271.872c44.885333-27.136 60.074667-86.016 33.962666-131.584-26.282667-45.397333-84.992-61.781333-130.901333-36.352L619.349333 235.52 328.874667 69.632c-12.970667-7.509333-33.28-7.509333-46.250667 0l-77.994667 45.056c-7.338667 4.266667-11.776 10.752-12.629333 18.090667-0.853333 7.509333 1.877333 14.848 8.021333 20.821333l210.261334 202.581333-163.157334 94.208L128 418.816c-2.048-0.512-4.096-0.341333-5.973333 0.853333l-16.384 9.386667 140.458666 37.205333c2.048 0.512 4.096 0.170667 5.802667-0.853333L426.666667 364.544c2.048-1.194667 3.584-3.413333 3.754666-5.802667 0.341333-2.389333-0.512-4.778667-2.389333-6.485333L202.069333 133.973333l88.405334-51.029333c8.021333-4.778667 22.528-4.778667 30.72 0l294.4 168.106667c2.389333 1.365333 5.290667 1.365333 7.68 0l231.594666-133.802667c18.773333-10.410667 40.448-12.8 61.098667-7.168 20.650667 5.802667 37.888 19.114667 48.64 37.717333 10.752 18.602667 13.653333 40.106667 8.362667 60.928-5.290667 20.821333-18.261333 38.229333-36.522667 49.322667l-0.341333 0.170667-692.224 399.872L42.666667 483.498667l64.682666-37.376-9.557333-12.458667z m-5.290667 54.613333l154.794667 134.485334L921.6 233.472c24.064-14.677333 32.085333-46.421333 18.090667-70.826667-14.165333-24.405333-45.738667-33.28-70.485334-19.797333l-231.253333 133.461333c-11.264 6.485333-25.258667 6.485333-36.693333 0L307.370667 108.714667c-0.853333-0.170667-2.389333-0.170667-3.242667 0L250.026667 139.946667l198.485333 191.317333c8.192 8.021333 12.458667 19.626667 10.922667 30.890667-1.365333 11.434667-8.192 21.674667-18.090667 27.477333l-174.762667 100.864c-8.533333 4.949333-18.432 6.144-27.818666 3.754667l-107.52-28.501334-38.741334 22.528zM307.882667 108.714667z m-4.096 0z m2.901333-0.512z m-1.706667 0z" fill="#3DAAF2" p-id="26703"></path></svg>